<svg xmlns="http://www.w3.org/2000/svg" viewBox="0 0 640 420"><rect width="640" height="420" fill="#e7efdf"/><path d="M0 290c168-50 365-13 640-74v204H0z" fill="#b0c7b3"/><path d="M131 130h378v184H131z" fill="#f4eddf"/><path d="M166 160h114v110H166zm154 0h154v110H320z" fill="#c9ddd0"/><path d="M136 293h372" stroke="#173f3a" stroke-width="8"/><path d="M87 307c13-77 31-126 72-179m-41 101c-40 0-65-24-69-59 35-3 61 18 69 59m2 9c40-5 61-30 65-62-36-5-59 17-65 62" fill="none" stroke="#4d8368" stroke-width="9"/><path d="M52 299h76l-8 66H60z" fill="#c39258"/><text x="25" y="399" fill="#173f3a" font-family="Arial" font-size="16" letter-spacing="2">ENVIRONMENT / PLACEHOLDER</text></svg>
