<svg xmlns="http://www.w3.org/2000/svg" viewBox="0 0 640 420"><rect width="640" height="420" fill="#eee7da"/><path d="M0 325c160-36 350-7 640-61v156H0z" fill="#c1d4c4"/><path d="M154 99h329v228H154z" fill="#e7efdf"/><path d="M197 142h241v116H197z" fill="#9fbba7"/><path d="M217 159h201v81H217z" fill="#d7e6d6"/><path d="M158 281h320" stroke="#c99d5a" stroke-width="10"/><path d="M256 280v66m128-66v66" stroke="#173f3a" stroke-width="8"/><path d="M71 335c3-60 17-103 61-140m-50 87c-37 0-57-19-60-48 30-5 53 12 60 48m9 6c33-7 50-28 52-56-28-4-47 15-52 56" fill="none" stroke="#4d8368" stroke-width="8"/><path d="M49 327h64l-6 49H55z" fill="#c39258"/><text x="25" y="399" fill="#173f3a" font-family="Arial" font-size="16" letter-spacing="2">RECEPTION / PLACEHOLDER</text></svg>
